  0
SECTION
  2
BLOCKS
  0
ENDSEC
  0
SECTION
  2
ENTITIES
  0
LINE
  8
0
 10
-7.5
 11
-7.5
 20
-7.25
 21
-6.646
  0
LINE
  8
0
 10
-7.5
 11
-7.494
 20
-6.646
 21
-6.568
  0
LINE
  8
0
 10
-7.494
 11
-7.476
 20
-6.568
 21
-6.492
  0
LINE
  8
0
 10
-7.476
 11
-7.446
 20
-6.492
 21
-6.419
  0
LINE
  8
0
 10
-7.446
 11
-7.405
 20
-6.419
 21
-6.353
  0
LINE
  8
0
 10
-7.405
 11
-7.354
 20
-6.353
 21
-6.293
  0
LINE
  8
0
 10
-7.354
 11
-6.314
 20
-6.293
 21
-5.254
  0
LINE
  8
0
 10
-6.314
 11
-6.26
 20
-5.254
 21
-5.189
  0
LINE
  8
0
 10
-6.26
 11
-6.217
 20
-5.189
 21
-5.117
  0
LINE
  8
0
 10
-6.217
 11
-6.187
 20
-5.117
 21
-5.038
  0
LINE
  8
0
 10
-6.187
 11
-6.171
 20
-5.038
 21
-4.956
  0
LINE
  8
0
 10
-6.171
 11
-6.169
 20
-4.956
 21
-4.872
  0
LINE
  8
0
 10
-6.169
 11
-6.18
 20
-4.872
 21
-4.789
  0
LINE
  8
0
 10
-6.18
 11
-6.206
 20
-4.789
 21
-4.709
  0
LINE
  8
0
 10
-6.206
 11
-6.244
 20
-4.709
 21
-4.634
  0
LINE
  8
0
 10
-6.244
 11
-6.295
 20
-4.634
 21
-4.567
  0
LINE
  8
0
 10
-6.295
 11
-6.356
 20
-4.567
 21
-4.509
  0
LINE
  8
0
 10
-6.356
 11
-6.426
 20
-4.509
 21
-4.462
  0
LINE
  8
0
 10
-6.426
 11
-6.503
 20
-4.462
 21
-4.428
  0
LINE
  8
0
 10
-6.503
 11
-6.584
 20
-4.428
 21
-4.407
  0
LINE
  8
0
 10
-6.584
 11
-6.668
 20
-4.407
 21
-4.4
  0
LINE
  8
0
 10
-6.668
 11
-7
 20
-4.4
 21
-4.4
  0
LINE
  8
0
 10
-7
 11
-7.078
 20
-4.4
 21
-4.394
  0
LINE
  8
0
 10
-7.078
 11
-7.155
 20
-4.394
 21
-4.376
  0
LINE
  8
0
 10
-7.155
 11
-7.227
 20
-4.376
 21
-4.345
  0
LINE
  8
0
 10
-7.227
 11
-7.294
 20
-4.345
 21
-4.305
  0
LINE
  8
0
 10
-7.294
 11
-7.354
 20
-4.305
 21
-4.254
  0
LINE
  8
0
 10
-7.354
 11
-7.405
 20
-4.254
 21
-4.194
  0
LINE
  8
0
 10
-7.405
 11
-7.446
 20
-4.194
 21
-4.127
  0
LINE
  8
0
 10
-7.446
 11
-7.476
 20
-4.127
 21
-4.055
  0
LINE
  8
0
 10
-7.476
 11
-7.494
 20
-4.055
 21
-3.978
  0
LINE
  8
0
 10
-7.494
 11
-7.5
 20
-3.978
 21
-3.9
  0
LINE
  8
0
 10
-7.5
 11
-7.5
 20
-3.9
 21
-2.1
  0
LINE
  8
0
 10
-7.5
 11
-7.494
 20
-2.1
 21
-2.022
  0
LINE
  8
0
 10
-7.494
 11
-7.476
 20
-2.022
 21
-1.945
  0
LINE
  8
0
 10
-7.476
 11
-7.446
 20
-1.945
 21
-1.873
  0
LINE
  8
0
 10
-7.446
 11
-7.405
 20
-1.873
 21
-1.806
  0
LINE
  8
0
 10
-7.405
 11
-7.354
 20
-1.806
 21
-1.746
  0
LINE
  8
0
 10
-7.354
 11
-7.294
 20
-1.746
 21
-1.695
  0
LINE
  8
0
 10
-7.294
 11
-7.227
 20
-1.695
 21
-1.654
  0
LINE
  8
0
 10
-7.227
 11
-7.155
 20
-1.654
 21
-1.624
  0
LINE
  8
0
 10
-7.155
 11
-7.078
 20
-1.624
 21
-1.606
  0
LINE
  8
0
 10
-7.078
 11
-7
 20
-1.606
 21
-1.6
  0
LINE
  8
0
 10
-7
 11
-6.6
 20
-1.6
 21
-1.6
  0
LINE
  8
0
 10
-6.6
 11
-6.522
 20
-1.6
 21
-1.606
  0
LINE
  8
0
 10
-6.522
 11
-6.445
 20
-1.606
 21
-1.624
  0
LINE
  8
0
 10
-6.445
 11
-6.373
 20
-1.624
 21
-1.654
  0
LINE
  8
0
 10
-6.373
 11
-6.306
 20
-1.654
 21
-1.695
  0
LINE
  8
0
 10
-6.306
 11
-6.246
 20
-1.695
 21
-1.746
  0
LINE
  8
0
 10
-6.246
 11
-6.195
 20
-1.746
 21
-1.806
  0
LINE
  8
0
 10
-6.195
 11
-6.154
 20
-1.806
 21
-1.873
  0
LINE
  8
0
 10
-6.154
 11
-6.124
 20
-1.873
 21
-1.945
  0
LINE
  8
0
 10
-6.124
 11
-6.106
 20
-1.945
 21
-2.022
  0
LINE
  8
0
 10
-6.106
 11
-6.1
 20
-2.022
 21
-2.1
  0
LINE
  8
0
 10
-6.1
 11
-6.1
 20
-2.1
 21
-2.7
  0
LINE
  8
0
 10
-6.1
 11
-6.098
 20
-2.7
 21
-2.731
  0
LINE
  8
0
 10
-6.098
 11
-6.09
 20
-2.731
 21
-2.762
  0
LINE
  8
0
 10
-6.09
 11
-6.078
 20
-2.762
 21
-2.791
  0
LINE
  8
0
 10
-6.078
 11
-6.062
 20
-2.791
 21
-2.818
  0
LINE
  8
0
 10
-6.062
 11
-6.041
 20
-2.818
 21
-2.841
  0
LINE
  8
0
 10
-6.041
 11
-6.018
 20
-2.841
 21
-2.862
  0
LINE
  8
0
 10
-6.018
 11
-5.991
 20
-2.862
 21
-2.878
  0
LINE
  8
0
 10
-5.991
 11
-5.962
 20
-2.878
 21
-2.89
  0
LINE
  8
0
 10
-5.962
 11
-5.931
 20
-2.89
 21
-2.898
  0
LINE
  8
0
 10
-5.931
 11
-5.9
 20
-2.898
 21
-2.9
  0
LINE
  8
0
 10
-5.9
 11
-3.814
 20
-2.9
 21
-2.9
  0
LINE
  8
0
 10
-3.814
 11
-3.728
 20
-2.9
 21
-2.893
  0
LINE
  8
0
 10
-3.728
 11
-3.645
 20
-2.893
 21
-2.87
  0
LINE
  8
0
 10
-3.645
 11
-3.566
 20
-2.87
 21
-2.834
  0
LINE
  8
0
 10
-3.566
 11
-3.495
 20
-2.834
 21
-2.785
  0
LINE
  8
0
 10
-3.495
 11
-3.434
 20
-2.785
 21
-2.724
  0
LINE
  8
0
 10
-3.434
 11
-3.384
 20
-2.724
 21
-2.654
  0
LINE
  8
0
 10
-3.384
 11
-3.346
 20
-2.654
 21
-2.576
  0
LINE
  8
0
 10
-3.346
 11
-3.323
 20
-2.576
 21
-2.493
  0
LINE
  8
0
 10
-3.323
 11
-2.989
 20
-2.493
 21
-0.734
  0
LINE
  8
0
 10
-2.989
 11
-2.98
 20
-0.734
 21
-0.701
  0
LINE
  8
0
 10
-2.98
 11
-2.965
 20
-0.701
 21
-0.67
  0
LINE
  8
0
 10
-2.965
 11
-2.945
 20
-0.67
 21
-0.642
  0
LINE
  8
0
 10
-2.945
 11
-2.92
 20
-0.642
 21
-0.617
  0
LINE
  8
0
 10
-2.92
 11
-2.892
 20
-0.617
 21
-0.598
  0
LINE
  8
0
 10
-2.892
 11
-2.861
 20
-0.598
 21
-0.583
  0
LINE
  8
0
 10
-2.861
 11
-2.827
 20
-0.583
 21
-0.574
  0
LINE
  8
0
 10
-2.827
 11
-2.793
 20
-0.574
 21
-0.572
  0
LINE
  8
0
 10
-2.793
 11
-2.606
 20
-0.572
 21
-0.572
  0
LINE
  8
0
 10
-2.606
 11
-2.575
 20
-0.572
 21
-0.569
  0
LINE
  8
0
 10
-2.575
 11
-2.544
 20
-0.569
 21
-0.562
  0
LINE
  8
0
 10
-2.544
 11
-2.515
 20
-0.562
 21
-0.55
  0
LINE
  8
0
 10
-2.515
 11
-2.488
 20
-0.55
 21
-0.533
  0
LINE
  8
0
 10
-2.488
 11
-2.465
 20
-0.533
 21
-0.513
  0
LINE
  8
0
 10
-2.465
 11
-2.444
 20
-0.513
 21
-0.489
  0
LINE
  8
0
 10
-2.444
 11
-2.428
 20
-0.489
 21
-0.462
  0
LINE
  8
0
 10
-2.428
 11
-2.416
 20
-0.462
 21
-0.433
  0
LINE
  8
0
 10
-2.416
 11
-2.408
 20
-0.433
 21
-0.403
  0
LINE
  8
0
 10
-2.408
 11
-2.406
 20
-0.403
 21
-0.372
  0
LINE
  8
0
 10
-2.406
 11
-2.406
 20
-0.372
 21
0.372
  0
LINE
  8
0
 10
-2.406
 11
-2.408
 20
0.372
 21
0.403
  0
LINE
  8
0
 10
-2.408
 11
-2.416
 20
0.403
 21
0.433
  0
LINE
  8
0
 10
-2.416
 11
-2.428
 20
0.433
 21
0.462
  0
LINE
  8
0
 10
-2.428
 11
-2.444
 20
0.462
 21
0.489
  0
LINE
  8
0
 10
-2.444
 11
-2.465
 20
0.489
 21
0.513
  0
LINE
  8
0
 10
-2.465
 11
-2.488
 20
0.513
 21
0.533
  0
LINE
  8
0
 10
-2.488
 11
-2.515
 20
0.533
 21
0.55
  0
LINE
  8
0
 10
-2.515
 11
-2.544
 20
0.55
 21
0.562
  0
LINE
  8
0
 10
-2.544
 11
-2.575
 20
0.562
 21
0.569
  0
LINE
  8
0
 10
-2.575
 11
-2.606
 20
0.569
 21
0.572
  0
LINE
  8
0
 10
-2.606
 11
-2.793
 20
0.572
 21
0.572
  0
LINE
  8
0
 10
-2.793
 11
-2.827
 20
0.572
 21
0.574
  0
LINE
  8
0
 10
-2.827
 11
-2.861
 20
0.574
 21
0.583
  0
LINE
  8
0
 10
-2.861
 11
-2.892
 20
0.583
 21
0.598
  0
LINE
  8
0
 10
-2.892
 11
-2.92
 20
0.598
 21
0.617
  0
LINE
  8
0
 10
-2.92
 11
-2.945
 20
0.617
 21
0.642
  0
LINE
  8
0
 10
-2.945
 11
-2.965
 20
0.642
 21
0.67
  0
LINE
  8
0
 10
-2.965
 11
-2.98
 20
0.67
 21
0.701
  0
LINE
  8
0
 10
-2.98
 11
-2.989
 20
0.701
 21
0.734
  0
LINE
  8
0
 10
-2.989
 11
-3.323
 20
0.734
 21
2.493
  0
LINE
  8
0
 10
-3.323
 11
-3.346
 20
2.493
 21
2.576
  0
LINE
  8
0
 10
-3.346
 11
-3.384
 20
2.576
 21
2.654
  0
LINE
  8
0
 10
-3.384
 11
-3.434
 20
2.654
 21
2.724
  0
LINE
  8
0
 10
-3.434
 11
-3.495
 20
2.724
 21
2.785
  0
LINE
  8
0
 10
-3.495
 11
-3.566
 20
2.785
 21
2.834
  0
LINE
  8
0
 10
-3.566
 11
-3.645
 20
2.834
 21
2.87
  0
LINE
  8
0
 10
-3.645
 11
-3.728
 20
2.87
 21
2.893
  0
LINE
  8
0
 10
-3.728
 11
-3.814
 20
2.893
 21
2.9
  0
LINE
  8
0
 10
-3.814
 11
-5.9
 20
2.9
 21
2.9
  0
LINE
  8
0
 10
-5.9
 11
-5.931
 20
2.9
 21
2.898
  0
LINE
  8
0
 10
-5.931
 11
-5.962
 20
2.898
 21
2.89
  0
LINE
  8
0
 10
-5.962
 11
-5.991
 20
2.89
 21
2.878
  0
LINE
  8
0
 10
-5.991
 11
-6.018
 20
2.878
 21
2.862
  0
LINE
  8
0
 10
-6.018
 11
-6.041
 20
2.862
 21
2.841
  0
LINE
  8
0
 10
-6.041
 11
-6.062
 20
2.841
 21
2.818
  0
LINE
  8
0
 10
-6.062
 11
-6.078
 20
2.818
 21
2.791
  0
LINE
  8
0
 10
-6.078
 11
-6.09
 20
2.791
 21
2.762
  0
LINE
  8
0
 10
-6.09
 11
-6.098
 20
2.762
 21
2.731
  0
LINE
  8
0
 10
-6.098
 11
-6.1
 20
2.731
 21
2.7
  0
LINE
  8
0
 10
-6.1
 11
-6.1
 20
2.7
 21
2.1
  0
LINE
  8
0
 10
-6.1
 11
-6.106
 20
2.1
 21
2.022
  0
LINE
  8
0
 10
-6.106
 11
-6.124
 20
2.022
 21
1.945
  0
LINE
  8
0
 10
-6.124
 11
-6.154
 20
1.945
 21
1.873
  0
LINE
  8
0
 10
-6.154
 11
-6.195
 20
1.873
 21
1.806
  0
LINE
  8
0
 10
-6.195
 11
-6.246
 20
1.806
 21
1.746
  0
LINE
  8
0
 10
-6.246
 11
-6.306
 20
1.746
 21
1.695
  0
LINE
  8
0
 10
-6.306
 11
-6.373
 20
1.695
 21
1.654
  0
LINE
  8
0
 10
-6.373
 11
-6.445
 20
1.654
 21
1.624
  0
LINE
  8
0
 10
-6.445
 11
-6.522
 20
1.624
 21
1.606
  0
LINE
  8
0
 10
-6.522
 11
-6.6
 20
1.606
 21
1.6
  0
LINE
  8
0
 10
-6.6
 11
-7
 20
1.6
 21
1.6
  0
LINE
  8
0
 10
-7
 11
-7.078
 20
1.6
 21
1.606
  0
LINE
  8
0
 10
-7.078
 11
-7.155
 20
1.606
 21
1.624
  0
LINE
  8
0
 10
-7.155
 11
-7.227
 20
1.624
 21
1.654
  0
LINE
  8
0
 10
-7.227
 11
-7.294
 20
1.654
 21
1.695
  0
LINE
  8
0
 10
-7.294
 11
-7.354
 20
1.695
 21
1.746
  0
LINE
  8
0
 10
-7.354
 11
-7.405
 20
1.746
 21
1.806
  0
LINE
  8
0
 10
-7.405
 11
-7.446
 20
1.806
 21
1.873
  0
LINE
  8
0
 10
-7.446
 11
-7.476
 20
1.873
 21
1.945
  0
LINE
  8
0
 10
-7.476
 11
-7.494
 20
1.945
 21
2.022
  0
LINE
  8
0
 10
-7.494
 11
-7.5
 20
2.022
 21
2.1
  0
LINE
  8
0
 10
-7.5
 11
-7.5
 20
2.1
 21
3.9
  0
LINE
  8
0
 10
-7.5
 11
-7.494
 20
3.9
 21
3.978
  0
LINE
  8
0
 10
-7.494
 11
-7.476
 20
3.978
 21
4.055
  0
LINE
  8
0
 10
-7.476
 11
-7.446
 20
4.055
 21
4.127
  0
LINE
  8
0
 10
-7.446
 11
-7.405
 20
4.127
 21
4.194
  0
LINE
  8
0
 10
-7.405
 11
-7.354
 20
4.194
 21
4.254
  0
LINE
  8
0
 10
-7.354
 11
-7.294
 20
4.254
 21
4.305
  0
LINE
  8
0
 10
-7.294
 11
-7.227
 20
4.305
 21
4.345
  0
LINE
  8
0
 10
-7.227
 11
-7.155
 20
4.345
 21
4.376
  0
LINE
  8
0
 10
-7.155
 11
-7.078
 20
4.376
 21
4.394
  0
LINE
  8
0
 10
-7.078
 11
-7
 20
4.394
 21
4.4
  0
LINE
  8
0
 10
-7
 11
-6.668
 20
4.4
 21
4.4
  0
LINE
  8
0
 10
-6.668
 11
-6.584
 20
4.4
 21
4.407
  0
LINE
  8
0
 10
-6.584
 11
-6.503
 20
4.407
 21
4.428
  0
LINE
  8
0
 10
-6.503
 11
-6.426
 20
4.428
 21
4.462
  0
LINE
  8
0
 10
-6.426
 11
-6.356
 20
4.462
 21
4.509
  0
LINE
  8
0
 10
-6.356
 11
-6.295
 20
4.509
 21
4.567
  0
LINE
  8
0
 10
-6.295
 11
-6.244
 20
4.567
 21
4.634
  0
LINE
  8
0
 10
-6.244
 11
-6.206
 20
4.634
 21
4.709
  0
LINE
  8
0
 10
-6.206
 11
-6.18
 20
4.709
 21
4.789
  0
LINE
  8
0
 10
-6.18
 11
-6.169
 20
4.789
 21
4.872
  0
LINE
  8
0
 10
-6.169
 11
-6.171
 20
4.872
 21
4.956
  0
LINE
  8
0
 10
-6.171
 11
-6.187
 20
4.956
 21
5.038
  0
LINE
  8
0
 10
-6.187
 11
-6.217
 20
5.038
 21
5.117
  0
LINE
  8
0
 10
-6.217
 11
-6.26
 20
5.117
 21
5.189
  0
LINE
  8
0
 10
-6.26
 11
-6.314
 20
5.189
 21
5.254
  0
LINE
  8
0
 10
-6.314
 11
-7.354
 20
5.254
 21
6.293
  0
LINE
  8
0
 10
-7.354
 11
-7.405
 20
6.293
 21
6.353
  0
LINE
  8
0
 10
-7.405
 11
-7.446
 20
6.353
 21
6.419
  0
LINE
  8
0
 10
-7.446
 11
-7.476
 20
6.419
 21
6.492
  0
LINE
  8
0
 10
-7.476
 11
-7.494
 20
6.492
 21
6.568
  0
LINE
  8
0
 10
-7.494
 11
-7.5
 20
6.568
 21
6.646
  0
LINE
  8
0
 10
-7.5
 11
-7.5
 20
6.646
 21
7.25
  0
LINE
  8
0
 10
-7.5
 11
-7.497
 20
7.25
 21
7.289
  0
LINE
  8
0
 10
-7.497
 11
-7.488
 20
7.289
 21
7.327
  0
LINE
  8
0
 10
-7.488
 11
-7.473
 20
7.327
 21
7.363
  0
LINE
  8
0
 10
-7.473
 11
-7.452
 20
7.363
 21
7.397
  0
LINE
  8
0
 10
-7.452
 11
-7.427
 20
7.397
 21
7.427
  0
LINE
  8
0
 10
-7.427
 11
-7.397
 20
7.427
 21
7.452
  0
LINE
  8
0
 10
-7.397
 11
-7.363
 20
7.452
 21
7.473
  0
LINE
  8
0
 10
-7.363
 11
-7.327
 20
7.473
 21
7.488
  0
LINE
  8
0
 10
-7.327
 11
-7.289
 20
7.488
 21
7.497
  0
LINE
  8
0
 10
-7.289
 11
-7.25
 20
7.497
 21
7.5
  0
LINE
  8
0
 10
-7.25
 11
-6.646
 20
7.5
 21
7.5
  0
LINE
  8
0
 10
-6.646
 11
-6.568
 20
7.5
 21
7.494
  0
LINE
  8
0
 10
-6.568
 11
-6.492
 20
7.494
 21
7.476
  0
LINE
  8
0
 10
-6.492
 11
-6.419
 20
7.476
 21
7.446
  0
LINE
  8
0
 10
-6.419
 11
-6.353
 20
7.446
 21
7.405
  0
LINE
  8
0
 10
-6.353
 11
-6.293
 20
7.405
 21
7.354
  0
LINE
  8
0
 10
-6.293
 11
-5.254
 20
7.354
 21
6.314
  0
LINE
  8
0
 10
-5.254
 11
-5.189
 20
6.314
 21
6.26
  0
LINE
  8
0
 10
-5.189
 11
-5.117
 20
6.26
 21
6.217
  0
LINE
  8
0
 10
-5.117
 11
-5.038
 20
6.217
 21
6.187
  0
LINE
  8
0
 10
-5.038
 11
-4.956
 20
6.187
 21
6.171
  0
LINE
  8
0
 10
-4.956
 11
-4.872
 20
6.171
 21
6.169
  0
LINE
  8
0
 10
-4.872
 11
-4.789
 20
6.169
 21
6.18
  0
LINE
  8
0
 10
-4.789
 11
-4.709
 20
6.18
 21
6.206
  0
LINE
  8
0
 10
-4.709
 11
-4.634
 20
6.206
 21
6.244
  0
LINE
  8
0
 10
-4.634
 11
-4.567
 20
6.244
 21
6.295
  0
LINE
  8
0
 10
-4.567
 11
-4.509
 20
6.295
 21
6.356
  0
LINE
  8
0
 10
-4.509
 11
-4.462
 20
6.356
 21
6.426
  0
LINE
  8
0
 10
-4.462
 11
-4.428
 20
6.426
 21
6.503
  0
LINE
  8
0
 10
-4.428
 11
-4.407
 20
6.503
 21
6.584
  0
LINE
  8
0
 10
-4.407
 11
-4.4
 20
6.584
 21
6.668
  0
LINE
  8
0
 10
-4.4
 11
-4.4
 20
6.668
 21
7
  0
LINE
  8
0
 10
-4.4
 11
-4.394
 20
7
 21
7.078
  0
LINE
  8
0
 10
-4.394
 11
-4.376
 20
7.078
 21
7.155
  0
LINE
  8
0
 10
-4.376
 11
-4.345
 20
7.155
 21
7.227
  0
LINE
  8
0
 10
-4.345
 11
-4.305
 20
7.227
 21
7.294
  0
LINE
  8
0
 10
-4.305
 11
-4.254
 20
7.294
 21
7.354
  0
LINE
  8
0
 10
-4.254
 11
-4.194
 20
7.354
 21
7.405
  0
LINE
  8
0
 10
-4.194
 11
-4.127
 20
7.405
 21
7.446
  0
LINE
  8
0
 10
-4.127
 11
-4.055
 20
7.446
 21
7.476
  0
LINE
  8
0
 10
-4.055
 11
-3.978
 20
7.476
 21
7.494
  0
LINE
  8
0
 10
-3.978
 11
-3.9
 20
7.494
 21
7.5
  0
LINE
  8
0
 10
-3.9
 11
-2.1
 20
7.5
 21
7.5
  0
LINE
  8
0
 10
-2.1
 11
-2.022
 20
7.5
 21
7.494
  0
LINE
  8
0
 10
-2.022
 11
-1.945
 20
7.494
 21
7.476
  0
LINE
  8
0
 10
-1.945
 11
-1.873
 20
7.476
 21
7.446
  0
LINE
  8
0
 10
-1.873
 11
-1.806
 20
7.446
 21
7.405
  0
LINE
  8
0
 10
-1.806
 11
-1.746
 20
7.405
 21
7.354
  0
LINE
  8
0
 10
-1.746
 11
-1.695
 20
7.354
 21
7.294
  0
LINE
  8
0
 10
-1.695
 11
-1.654
 20
7.294
 21
7.227
  0
LINE
  8
0
 10
-1.654
 11
-1.624
 20
7.227
 21
7.155
  0
LINE
  8
0
 10
-1.624
 11
-1.606
 20
7.155
 21
7.078
  0
LINE
  8
0
 10
-1.606
 11
-1.6
 20
7.078
 21
7
  0
LINE
  8
0
 10
-1.6
 11
-1.6
 20
7
 21
6.6
  0
LINE
  8
0
 10
-1.6
 11
-1.606
 20
6.6
 21
6.522
  0
LINE
  8
0
 10
-1.606
 11
-1.624
 20
6.522
 21
6.445
  0
LINE
  8
0
 10
-1.624
 11
-1.654
 20
6.445
 21
6.373
  0
LINE
  8
0
 10
-1.654
 11
-1.695
 20
6.373
 21
6.306
  0
LINE
  8
0
 10
-1.695
 11
-1.746
 20
6.306
 21
6.246
  0
LINE
  8
0
 10
-1.746
 11
-1.806
 20
6.246
 21
6.195
  0
LINE
  8
0
 10
-1.806
 11
-1.873
 20
6.195
 21
6.154
  0
LINE
  8
0
 10
-1.873
 11
-1.945
 20
6.154
 21
6.124
  0
LINE
  8
0
 10
-1.945
 11
-2.022
 20
6.124
 21
6.106
  0
LINE
  8
0
 10
-2.022
 11
-2.1
 20
6.106
 21
6.1
  0
LINE
  8
0
 10
-2.1
 11
-2.7
 20
6.1
 21
6.1
  0
LINE
  8
0
 10
-2.7
 11
-2.731
 20
6.1
 21
6.098
  0
LINE
  8
0
 10
-2.731
 11
-2.762
 20
6.098
 21
6.09
  0
LINE
  8
0
 10
-2.762
 11
-2.791
 20
6.09
 21
6.078
  0
LINE
  8
0
 10
-2.791
 11
-2.818
 20
6.078
 21
6.062
  0
LINE
  8
0
 10
-2.818
 11
-2.841
 20
6.062
 21
6.041
  0
LINE
  8
0
 10
-2.841
 11
-2.862
 20
6.041
 21
6.018
  0
LINE
  8
0
 10
-2.862
 11
-2.878
 20
6.018
 21
5.991
  0
LINE
  8
0
 10
-2.878
 11
-2.89
 20
5.991
 21
5.962
  0
LINE
  8
0
 10
-2.89
 11
-2.898
 20
5.962
 21
5.931
  0
LINE
  8
0
 10
-2.898
 11
-2.9
 20
5.931
 21
5.9
  0
LINE
  8
0
 10
-2.9
 11
-2.9
 20
5.9
 21
3.814
  0
LINE
  8
0
 10
-2.9
 11
-2.893
 20
3.814
 21
3.728
  0
LINE
  8
0
 10
-2.893
 11
-2.87
 20
3.728
 21
3.645
  0
LINE
  8
0
 10
-2.87
 11
-2.834
 20
3.645
 21
3.566
  0
LINE
  8
0
 10
-2.834
 11
-2.785
 20
3.566
 21
3.495
  0
LINE
  8
0
 10
-2.785
 11
-2.724
 20
3.495
 21
3.434
  0
LINE
  8
0
 10
-2.724
 11
-2.654
 20
3.434
 21
3.384
  0
LINE
  8
0
 10
-2.654
 11
-2.576
 20
3.384
 21
3.346
  0
LINE
  8
0
 10
-2.576
 11
-2.493
 20
3.346
 21
3.323
  0
LINE
  8
0
 10
-2.493
 11
-0.734
 20
3.323
 21
2.989
  0
LINE
  8
0
 10
-0.734
 11
-0.701
 20
2.989
 21
2.98
  0
LINE
  8
0
 10
-0.701
 11
-0.67
 20
2.98
 21
2.965
  0
LINE
  8
0
 10
-0.67
 11
-0.642
 20
2.965
 21
2.945
  0
LINE
  8
0
 10
-0.642
 11
-0.617
 20
2.945
 21
2.92
  0
LINE
  8
0
 10
-0.617
 11
-0.598
 20
2.92
 21
2.892
  0
LINE
  8
0
 10
-0.598
 11
-0.583
 20
2.892
 21
2.861
  0
LINE
  8
0
 10
-0.583
 11
-0.574
 20
2.861
 21
2.827
  0
LINE
  8
0
 10
-0.574
 11
-0.572
 20
2.827
 21
2.793
  0
LINE
  8
0
 10
-0.572
 11
-0.572
 20
2.793
 21
2.606
  0
LINE
  8
0
 10
-0.572
 11
-0.569
 20
2.606
 21
2.575
  0
LINE
  8
0
 10
-0.569
 11
-0.562
 20
2.575
 21
2.544
  0
LINE
  8
0
 10
-0.562
 11
-0.55
 20
2.544
 21
2.515
  0
LINE
  8
0
 10
-0.55
 11
-0.533
 20
2.515
 21
2.488
  0
LINE
  8
0
 10
-0.533
 11
-0.513
 20
2.488
 21
2.465
  0
LINE
  8
0
 10
-0.513
 11
-0.489
 20
2.465
 21
2.444
  0
LINE
  8
0
 10
-0.489
 11
-0.462
 20
2.444
 21
2.428
  0
LINE
  8
0
 10
-0.462
 11
-0.433
 20
2.428
 21
2.416
  0
LINE
  8
0
 10
-0.433
 11
-0.403
 20
2.416
 21
2.408
  0
LINE
  8
0
 10
-0.403
 11
-0.372
 20
2.408
 21
2.406
  0
LINE
  8
0
 10
-0.372
 11
0.372
 20
2.406
 21
2.406
  0
LINE
  8
0
 10
0.372
 11
0.403
 20
2.406
 21
2.408
  0
LINE
  8
0
 10
0.403
 11
0.433
 20
2.408
 21
2.416
  0
LINE
  8
0
 10
0.433
 11
0.462
 20
2.416
 21
2.428
  0
LINE
  8
0
 10
0.462
 11
0.489
 20
2.428
 21
2.444
  0
LINE
  8
0
 10
0.489
 11
0.513
 20
2.444
 21
2.465
  0
LINE
  8
0
 10
0.513
 11
0.533
 20
2.465
 21
2.488
  0
LINE
  8
0
 10
0.533
 11
0.55
 20
2.488
 21
2.515
  0
LINE
  8
0
 10
0.55
 11
0.562
 20
2.515
 21
2.544
  0
LINE
  8
0
 10
0.562
 11
0.569
 20
2.544
 21
2.575
  0
LINE
  8
0
 10
0.569
 11
0.572
 20
2.575
 21
2.606
  0
LINE
  8
0
 10
0.572
 11
0.572
 20
2.606
 21
2.793
  0
LINE
  8
0
 10
0.572
 11
0.574
 20
2.793
 21
2.827
  0
LINE
  8
0
 10
0.574
 11
0.583
 20
2.827
 21
2.861
  0
LINE
  8
0
 10
0.583
 11
0.598
 20
2.861
 21
2.892
  0
LINE
  8
0
 10
0.598
 11
0.617
 20
2.892
 21
2.92
  0
LINE
  8
0
 10
0.617
 11
0.642
 20
2.92
 21
2.945
  0
LINE
  8
0
 10
0.642
 11
0.67
 20
2.945
 21
2.965
  0
LINE
  8
0
 10
0.67
 11
0.701
 20
2.965
 21
2.98
  0
LINE
  8
0
 10
0.701
 11
0.734
 20
2.98
 21
2.989
  0
LINE
  8
0
 10
0.734
 11
2.493
 20
2.989
 21
3.323
  0
LINE
  8
0
 10
2.493
 11
2.576
 20
3.323
 21
3.346
  0
LINE
  8
0
 10
2.576
 11
2.654
 20
3.346
 21
3.384
  0
LINE
  8
0
 10
2.654
 11
2.724
 20
3.384
 21
3.434
  0
LINE
  8
0
 10
2.724
 11
2.785
 20
3.434
 21
3.495
  0
LINE
  8
0
 10
2.785
 11
2.834
 20
3.495
 21
3.566
  0
LINE
  8
0
 10
2.834
 11
2.87
 20
3.566
 21
3.645
  0
LINE
  8
0
 10
2.87
 11
2.893
 20
3.645
 21
3.728
  0
LINE
  8
0
 10
2.893
 11
2.9
 20
3.728
 21
3.814
  0
LINE
  8
0
 10
2.9
 11
2.9
 20
3.814
 21
5.9
  0
LINE
  8
0
 10
2.9
 11
2.898
 20
5.9
 21
5.931
  0
LINE
  8
0
 10
2.898
 11
2.89
 20
5.931
 21
5.962
  0
LINE
  8
0
 10
2.89
 11
2.878
 20
5.962
 21
5.991
  0
LINE
  8
0
 10
2.878
 11
2.862
 20
5.991
 21
6.018
  0
LINE
  8
0
 10
2.862
 11
2.841
 20
6.018
 21
6.041
  0
LINE
  8
0
 10
2.841
 11
2.818
 20
6.041
 21
6.062
  0
LINE
  8
0
 10
2.818
 11
2.791
 20
6.062
 21
6.078
  0
LINE
  8
0
 10
2.791
 11
2.762
 20
6.078
 21
6.09
  0
LINE
  8
0
 10
2.762
 11
2.731
 20
6.09
 21
6.098
  0
LINE
  8
0
 10
2.731
 11
2.7
 20
6.098
 21
6.1
  0
LINE
  8
0
 10
2.7
 11
2.1
 20
6.1
 21
6.1
  0
LINE
  8
0
 10
2.1
 11
2.022
 20
6.1
 21
6.106
  0
LINE
  8
0
 10
2.022
 11
1.945
 20
6.106
 21
6.124
  0
LINE
  8
0
 10
1.945
 11
1.873
 20
6.124
 21
6.154
  0
LINE
  8
0
 10
1.873
 11
1.806
 20
6.154
 21
6.195
  0
LINE
  8
0
 10
1.806
 11
1.746
 20
6.195
 21
6.246
  0
LINE
  8
0
 10
1.746
 11
1.695
 20
6.246
 21
6.306
  0
LINE
  8
0
 10
1.695
 11
1.654
 20
6.306
 21
6.373
  0
LINE
  8
0
 10
1.654
 11
1.624
 20
6.373
 21
6.445
  0
LINE
  8
0
 10
1.624
 11
1.606
 20
6.445
 21
6.522
  0
LINE
  8
0
 10
1.606
 11
1.6
 20
6.522
 21
6.6
  0
LINE
  8
0
 10
1.6
 11
1.6
 20
6.6
 21
7
  0
LINE
  8
0
 10
1.6
 11
1.606
 20
7
 21
7.078
  0
LINE
  8
0
 10
1.606
 11
1.624
 20
7.078
 21
7.155
  0
LINE
  8
0
 10
1.624
 11
1.654
 20
7.155
 21
7.227
  0
LINE
  8
0
 10
1.654
 11
1.695
 20
7.227
 21
7.294
  0
LINE
  8
0
 10
1.695
 11
1.746
 20
7.294
 21
7.354
  0
LINE
  8
0
 10
1.746
 11
1.806
 20
7.354
 21
7.405
  0
LINE
  8
0
 10
1.806
 11
1.873
 20
7.405
 21
7.446
  0
LINE
  8
0
 10
1.873
 11
1.945
 20
7.446
 21
7.476
  0
LINE
  8
0
 10
1.945
 11
2.022
 20
7.476
 21
7.494
  0
LINE
  8
0
 10
2.022
 11
2.1
 20
7.494
 21
7.5
  0
LINE
  8
0
 10
2.1
 11
3.9
 20
7.5
 21
7.5
  0
LINE
  8
0
 10
3.9
 11
3.978
 20
7.5
 21
7.494
  0
LINE
  8
0
 10
3.978
 11
4.055
 20
7.494
 21
7.476
  0
LINE
  8
0
 10
4.055
 11
4.127
 20
7.476
 21
7.446
  0
LINE
  8
0
 10
4.127
 11
4.194
 20
7.446
 21
7.405
  0
LINE
  8
0
 10
4.194
 11
4.254
 20
7.405
 21
7.354
  0
LINE
  8
0
 10
4.254
 11
4.305
 20
7.354
 21
7.294
  0
LINE
  8
0
 10
4.305
 11
4.345
 20
7.294
 21
7.227
  0
LINE
  8
0
 10
4.345
 11
4.376
 20
7.227
 21
7.155
  0
LINE
  8
0
 10
4.376
 11
4.394
 20
7.155
 21
7.078
  0
LINE
  8
0
 10
4.394
 11
4.4
 20
7.078
 21
7
  0
LINE
  8
0
 10
4.4
 11
4.4
 20
7
 21
6.668
  0
LINE
  8
0
 10
4.4
 11
4.407
 20
6.668
 21
6.584
  0
LINE
  8
0
 10
4.407
 11
4.428
 20
6.584
 21
6.503
  0
LINE
  8
0
 10
4.428
 11
4.462
 20
6.503
 21
6.426
  0
LINE
  8
0
 10
4.462
 11
4.509
 20
6.426
 21
6.356
  0
LINE
  8
0
 10
4.509
 11
4.567
 20
6.356
 21
6.295
  0
LINE
  8
0
 10
4.567
 11
4.634
 20
6.295
 21
6.244
  0
LINE
  8
0
 10
4.634
 11
4.709
 20
6.244
 21
6.206
  0
LINE
  8
0
 10
4.709
 11
4.789
 20
6.206
 21
6.18
  0
LINE
  8
0
 10
4.789
 11
4.872
 20
6.18
 21
6.169
  0
LINE
  8
0
 10
4.872
 11
4.956
 20
6.169
 21
6.171
  0
LINE
  8
0
 10
4.956
 11
5.038
 20
6.171
 21
6.187
  0
LINE
  8
0
 10
5.038
 11
5.117
 20
6.187
 21
6.217
  0
LINE
  8
0
 10
5.117
 11
5.189
 20
6.217
 21
6.26
  0
LINE
  8
0
 10
5.189
 11
5.254
 20
6.26
 21
6.314
  0
LINE
  8
0
 10
5.254
 11
6.293
 20
6.314
 21
7.354
  0
LINE
  8
0
 10
6.293
 11
6.353
 20
7.354
 21
7.405
  0
LINE
  8
0
 10
6.353
 11
6.419
 20
7.405
 21
7.446
  0
LINE
  8
0
 10
6.419
 11
6.492
 20
7.446
 21
7.476
  0
LINE
  8
0
 10
6.492
 11
6.568
 20
7.476
 21
7.494
  0
LINE
  8
0
 10
6.568
 11
6.646
 20
7.494
 21
7.5
  0
LINE
  8
0
 10
6.646
 11
7.25
 20
7.5
 21
7.5
  0
LINE
  8
0
 10
7.25
 11
7.289
 20
7.5
 21
7.497
  0
LINE
  8
0
 10
7.289
 11
7.327
 20
7.497
 21
7.488
  0
LINE
  8
0
 10
7.327
 11
7.363
 20
7.488
 21
7.473
  0
LINE
  8
0
 10
7.363
 11
7.397
 20
7.473
 21
7.452
  0
LINE
  8
0
 10
7.397
 11
7.427
 20
7.452
 21
7.427
  0
LINE
  8
0
 10
7.427
 11
7.452
 20
7.427
 21
7.397
  0
LINE
  8
0
 10
7.452
 11
7.473
 20
7.397
 21
7.363
  0
LINE
  8
0
 10
7.473
 11
7.488
 20
7.363
 21
7.327
  0
LINE
  8
0
 10
7.488
 11
7.497
 20
7.327
 21
7.289
  0
LINE
  8
0
 10
7.497
 11
7.5
 20
7.289
 21
7.25
  0
LINE
  8
0
 10
7.5
 11
7.5
 20
7.25
 21
6.646
  0
LINE
  8
0
 10
7.5
 11
7.494
 20
6.646
 21
6.568
  0
LINE
  8
0
 10
7.494
 11
7.476
 20
6.568
 21
6.492
  0
LINE
  8
0
 10
7.476
 11
7.446
 20
6.492
 21
6.419
  0
LINE
  8
0
 10
7.446
 11
7.405
 20
6.419
 21
6.353
  0
LINE
  8
0
 10
7.405
 11
7.354
 20
6.353
 21
6.293
  0
LINE
  8
0
 10
7.354
 11
6.314
 20
6.293
 21
5.254
  0
LINE
  8
0
 10
6.314
 11
6.26
 20
5.254
 21
5.189
  0
LINE
  8
0
 10
6.26
 11
6.217
 20
5.189
 21
5.117
  0
LINE
  8
0
 10
6.217
 11
6.187
 20
5.117
 21
5.038
  0
LINE
  8
0
 10
6.187
 11
6.171
 20
5.038
 21
4.956
  0
LINE
  8
0
 10
6.171
 11
6.169
 20
4.956
 21
4.872
  0
LINE
  8
0
 10
6.169
 11
6.18
 20
4.872
 21
4.789
  0
LINE
  8
0
 10
6.18
 11
6.206
 20
4.789
 21
4.709
  0
LINE
  8
0
 10
6.206
 11
6.244
 20
4.709
 21
4.634
  0
LINE
  8
0
 10
6.244
 11
6.295
 20
4.634
 21
4.567
  0
LINE
  8
0
 10
6.295
 11
6.356
 20
4.567
 21
4.509
  0
LINE
  8
0
 10
6.356
 11
6.426
 20
4.509
 21
4.462
  0
LINE
  8
0
 10
6.426
 11
6.503
 20
4.462
 21
4.428
  0
LINE
  8
0
 10
6.503
 11
6.584
 20
4.428
 21
4.407
  0
LINE
  8
0
 10
6.584
 11
6.668
 20
4.407
 21
4.4
  0
LINE
  8
0
 10
6.668
 11
7
 20
4.4
 21
4.4
  0
LINE
  8
0
 10
7
 11
7.078
 20
4.4
 21
4.394
  0
LINE
  8
0
 10
7.078
 11
7.155
 20
4.394
 21
4.376
  0
LINE
  8
0
 10
7.155
 11
7.227
 20
4.376
 21
4.345
  0
LINE
  8
0
 10
7.227
 11
7.294
 20
4.345
 21
4.305
  0
LINE
  8
0
 10
7.294
 11
7.354
 20
4.305
 21
4.254
  0
LINE
  8
0
 10
7.354
 11
7.405
 20
4.254
 21
4.194
  0
LINE
  8
0
 10
7.405
 11
7.446
 20
4.194
 21
4.127
  0
LINE
  8
0
 10
7.446
 11
7.476
 20
4.127
 21
4.055
  0
LINE
  8
0
 10
7.476
 11
7.494
 20
4.055
 21
3.978
  0
LINE
  8
0
 10
7.494
 11
7.5
 20
3.978
 21
3.9
  0
LINE
  8
0
 10
7.5
 11
7.5
 20
3.9
 21
2.1
  0
LINE
  8
0
 10
7.5
 11
7.494
 20
2.1
 21
2.022
  0
LINE
  8
0
 10
7.494
 11
7.476
 20
2.022
 21
1.945
  0
LINE
  8
0
 10
7.476
 11
7.446
 20
1.945
 21
1.873
  0
LINE
  8
0
 10
7.446
 11
7.405
 20
1.873
 21
1.806
  0
LINE
  8
0
 10
7.405
 11
7.354
 20
1.806
 21
1.746
  0
LINE
  8
0
 10
7.354
 11
7.294
 20
1.746
 21
1.695
  0
LINE
  8
0
 10
7.294
 11
7.227
 20
1.695
 21
1.654
  0
LINE
  8
0
 10
7.227
 11
7.155
 20
1.654
 21
1.624
  0
LINE
  8
0
 10
7.155
 11
7.078
 20
1.624
 21
1.606
  0
LINE
  8
0
 10
7.078
 11
7
 20
1.606
 21
1.6
  0
LINE
  8
0
 10
7
 11
6.6
 20
1.6
 21
1.6
  0
LINE
  8
0
 10
6.6
 11
6.522
 20
1.6
 21
1.606
  0
LINE
  8
0
 10
6.522
 11
6.445
 20
1.606
 21
1.624
  0
LINE
  8
0
 10
6.445
 11
6.373
 20
1.624
 21
1.654
  0
LINE
  8
0
 10
6.373
 11
6.306
 20
1.654
 21
1.695
  0
LINE
  8
0
 10
6.306
 11
6.246
 20
1.695
 21
1.746
  0
LINE
  8
0
 10
6.246
 11
6.195
 20
1.746
 21
1.806
  0
LINE
  8
0
 10
6.195
 11
6.154
 20
1.806
 21
1.873
  0
LINE
  8
0
 10
6.154
 11
6.124
 20
1.873
 21
1.945
  0
LINE
  8
0
 10
6.124
 11
6.106
 20
1.945
 21
2.022
  0
LINE
  8
0
 10
6.106
 11
6.1
 20
2.022
 21
2.1
  0
LINE
  8
0
 10
6.1
 11
6.1
 20
2.1
 21
2.7
  0
LINE
  8
0
 10
6.1
 11
6.098
 20
2.7
 21
2.731
  0
LINE
  8
0
 10
6.098
 11
6.09
 20
2.731
 21
2.762
  0
LINE
  8
0
 10
6.09
 11
6.078
 20
2.762
 21
2.791
  0
LINE
  8
0
 10
6.078
 11
6.062
 20
2.791
 21
2.818
  0
LINE
  8
0
 10
6.062
 11
6.041
 20
2.818
 21
2.841
  0
LINE
  8
0
 10
6.041
 11
6.018
 20
2.841
 21
2.862
  0
LINE
  8
0
 10
6.018
 11
5.991
 20
2.862
 21
2.878
  0
LINE
  8
0
 10
5.991
 11
5.962
 20
2.878
 21
2.89
  0
LINE
  8
0
 10
5.962
 11
5.931
 20
2.89
 21
2.898
  0
LINE
  8
0
 10
5.931
 11
5.9
 20
2.898
 21
2.9
  0
LINE
  8
0
 10
5.9
 11
3.814
 20
2.9
 21
2.9
  0
LINE
  8
0
 10
3.814
 11
3.728
 20
2.9
 21
2.893
  0
LINE
  8
0
 10
3.728
 11
3.645
 20
2.893
 21
2.87
  0
LINE
  8
0
 10
3.645
 11
3.566
 20
2.87
 21
2.834
  0
LINE
  8
0
 10
3.566
 11
3.495
 20
2.834
 21
2.785
  0
LINE
  8
0
 10
3.495
 11
3.434
 20
2.785
 21
2.724
  0
LINE
  8
0
 10
3.434
 11
3.384
 20
2.724
 21
2.654
  0
LINE
  8
0
 10
3.384
 11
3.346
 20
2.654
 21
2.576
  0
LINE
  8
0
 10
3.346
 11
3.323
 20
2.576
 21
2.493
  0
LINE
  8
0
 10
3.323
 11
2.989
 20
2.493
 21
0.734
  0
LINE
  8
0
 10
2.989
 11
2.98
 20
0.734
 21
0.701
  0
LINE
  8
0
 10
2.98
 11
2.965
 20
0.701
 21
0.67
  0
LINE
  8
0
 10
2.965
 11
2.945
 20
0.67
 21
0.642
  0
LINE
  8
0
 10
2.945
 11
2.92
 20
0.642
 21
0.617
  0
LINE
  8
0
 10
2.92
 11
2.892
 20
0.617
 21
0.598
  0
LINE
  8
0
 10
2.892
 11
2.861
 20
0.598
 21
0.583
  0
LINE
  8
0
 10
2.861
 11
2.827
 20
0.583
 21
0.574
  0
LINE
  8
0
 10
2.827
 11
2.793
 20
0.574
 21
0.572
  0
LINE
  8
0
 10
2.793
 11
2.606
 20
0.572
 21
0.572
  0
LINE
  8
0
 10
2.606
 11
2.575
 20
0.572
 21
0.569
  0
LINE
  8
0
 10
2.575
 11
2.544
 20
0.569
 21
0.562
  0
LINE
  8
0
 10
2.544
 11
2.515
 20
0.562
 21
0.55
  0
LINE
  8
0
 10
2.515
 11
2.488
 20
0.55
 21
0.533
  0
LINE
  8
0
 10
2.488
 11
2.465
 20
0.533
 21
0.513
  0
LINE
  8
0
 10
2.465
 11
2.444
 20
0.513
 21
0.489
  0
LINE
  8
0
 10
2.444
 11
2.428
 20
0.489
 21
0.462
  0
LINE
  8
0
 10
2.428
 11
2.416
 20
0.462
 21
0.433
  0
LINE
  8
0
 10
2.416
 11
2.408
 20
0.433
 21
0.403
  0
LINE
  8
0
 10
2.408
 11
2.406
 20
0.403
 21
0.372
  0
LINE
  8
0
 10
2.406
 11
2.406
 20
0.372
 21
-0.372
  0
LINE
  8
0
 10
2.406
 11
2.408
 20
-0.372
 21
-0.403
  0
LINE
  8
0
 10
2.408
 11
2.416
 20
-0.403
 21
-0.433
  0
LINE
  8
0
 10
2.416
 11
2.428
 20
-0.433
 21
-0.462
  0
LINE
  8
0
 10
2.428
 11
2.444
 20
-0.462
 21
-0.489
  0
LINE
  8
0
 10
2.444
 11
2.465
 20
-0.489
 21
-0.513
  0
LINE
  8
0
 10
2.465
 11
2.488
 20
-0.513
 21
-0.533
  0
LINE
  8
0
 10
2.488
 11
2.515
 20
-0.533
 21
-0.55
  0
LINE
  8
0
 10
2.515
 11
2.544
 20
-0.55
 21
-0.562
  0
LINE
  8
0
 10
2.544
 11
2.575
 20
-0.562
 21
-0.569
  0
LINE
  8
0
 10
2.575
 11
2.606
 20
-0.569
 21
-0.572
  0
LINE
  8
0
 10
2.606
 11
2.793
 20
-0.572
 21
-0.572
  0
LINE
  8
0
 10
2.793
 11
2.827
 20
-0.572
 21
-0.574
  0
LINE
  8
0
 10
2.827
 11
2.861
 20
-0.574
 21
-0.583
  0
LINE
  8
0
 10
2.861
 11
2.892
 20
-0.583
 21
-0.598
  0
LINE
  8
0
 10
2.892
 11
2.92
 20
-0.598
 21
-0.617
  0
LINE
  8
0
 10
2.92
 11
2.945
 20
-0.617
 21
-0.642
  0
LINE
  8
0
 10
2.945
 11
2.965
 20
-0.642
 21
-0.67
  0
LINE
  8
0
 10
2.965
 11
2.98
 20
-0.67
 21
-0.701
  0
LINE
  8
0
 10
2.98
 11
2.989
 20
-0.701
 21
-0.734
  0
LINE
  8
0
 10
2.989
 11
3.323
 20
-0.734
 21
-2.493
  0
LINE
  8
0
 10
3.323
 11
3.346
 20
-2.493
 21
-2.576
  0
LINE
  8
0
 10
3.346
 11
3.384
 20
-2.576
 21
-2.654
  0
LINE
  8
0
 10
3.384
 11
3.434
 20
-2.654
 21
-2.724
  0
LINE
  8
0
 10
3.434
 11
3.495
 20
-2.724
 21
-2.785
  0
LINE
  8
0
 10
3.495
 11
3.566
 20
-2.785
 21
-2.834
  0
LINE
  8
0
 10
3.566
 11
3.645
 20
-2.834
 21
-2.87
  0
LINE
  8
0
 10
3.645
 11
3.728
 20
-2.87
 21
-2.893
  0
LINE
  8
0
 10
3.728
 11
3.814
 20
-2.893
 21
-2.9
  0
LINE
  8
0
 10
3.814
 11
5.9
 20
-2.9
 21
-2.9
  0
LINE
  8
0
 10
5.9
 11
5.931
 20
-2.9
 21
-2.898
  0
LINE
  8
0
 10
5.931
 11
5.962
 20
-2.898
 21
-2.89
  0
LINE
  8
0
 10
5.962
 11
5.991
 20
-2.89
 21
-2.878
  0
LINE
  8
0
 10
5.991
 11
6.018
 20
-2.878
 21
-2.862
  0
LINE
  8
0
 10
6.018
 11
6.041
 20
-2.862
 21
-2.841
  0
LINE
  8
0
 10
6.041
 11
6.062
 20
-2.841
 21
-2.818
  0
LINE
  8
0
 10
6.062
 11
6.078
 20
-2.818
 21
-2.791
  0
LINE
  8
0
 10
6.078
 11
6.09
 20
-2.791
 21
-2.762
  0
LINE
  8
0
 10
6.09
 11
6.098
 20
-2.762
 21
-2.731
  0
LINE
  8
0
 10
6.098
 11
6.1
 20
-2.731
 21
-2.7
  0
LINE
  8
0
 10
6.1
 11
6.1
 20
-2.7
 21
-2.1
  0
LINE
  8
0
 10
6.1
 11
6.106
 20
-2.1
 21
-2.022
  0
LINE
  8
0
 10
6.106
 11
6.124
 20
-2.022
 21
-1.945
  0
LINE
  8
0
 10
6.124
 11
6.154
 20
-1.945
 21
-1.873
  0
LINE
  8
0
 10
6.154
 11
6.195
 20
-1.873
 21
-1.806
  0
LINE
  8
0
 10
6.195
 11
6.246
 20
-1.806
 21
-1.746
  0
LINE
  8
0
 10
6.246
 11
6.306
 20
-1.746
 21
-1.695
  0
LINE
  8
0
 10
6.306
 11
6.373
 20
-1.695
 21
-1.654
  0
LINE
  8
0
 10
6.373
 11
6.445
 20
-1.654
 21
-1.624
  0
LINE
  8
0
 10
6.445
 11
6.522
 20
-1.624
 21
-1.606
  0
LINE
  8
0
 10
6.522
 11
6.6
 20
-1.606
 21
-1.6
  0
LINE
  8
0
 10
6.6
 11
7
 20
-1.6
 21
-1.6
  0
LINE
  8
0
 10
7
 11
7.078
 20
-1.6
 21
-1.606
  0
LINE
  8
0
 10
7.078
 11
7.155
 20
-1.606
 21
-1.624
  0
LINE
  8
0
 10
7.155
 11
7.227
 20
-1.624
 21
-1.654
  0
LINE
  8
0
 10
7.227
 11
7.294
 20
-1.654
 21
-1.695
  0
LINE
  8
0
 10
7.294
 11
7.354
 20
-1.695
 21
-1.746
  0
LINE
  8
0
 10
7.354
 11
7.405
 20
-1.746
 21
-1.806
  0
LINE
  8
0
 10
7.405
 11
7.446
 20
-1.806
 21
-1.873
  0
LINE
  8
0
 10
7.446
 11
7.476
 20
-1.873
 21
-1.945
  0
LINE
  8
0
 10
7.476
 11
7.494
 20
-1.945
 21
-2.022
  0
LINE
  8
0
 10
7.494
 11
7.5
 20
-2.022
 21
-2.1
  0
LINE
  8
0
 10
7.5
 11
7.5
 20
-2.1
 21
-3.9
  0
LINE
  8
0
 10
7.5
 11
7.494
 20
-3.9
 21
-3.978
  0
LINE
  8
0
 10
7.494
 11
7.476
 20
-3.978
 21
-4.055
  0
LINE
  8
0
 10
7.476
 11
7.446
 20
-4.055
 21
-4.127
  0
LINE
  8
0
 10
7.446
 11
7.405
 20
-4.127
 21
-4.194
  0
LINE
  8
0
 10
7.405
 11
7.354
 20
-4.194
 21
-4.254
  0
LINE
  8
0
 10
7.354
 11
7.294
 20
-4.254
 21
-4.305
  0
LINE
  8
0
 10
7.294
 11
7.227
 20
-4.305
 21
-4.345
  0
LINE
  8
0
 10
7.227
 11
7.155
 20
-4.345
 21
-4.376
  0
LINE
  8
0
 10
7.155
 11
7.078
 20
-4.376
 21
-4.394
  0
LINE
  8
0
 10
7.078
 11
7
 20
-4.394
 21
-4.4
  0
LINE
  8
0
 10
7
 11
6.668
 20
-4.4
 21
-4.4
  0
LINE
  8
0
 10
6.668
 11
6.584
 20
-4.4
 21
-4.407
  0
LINE
  8
0
 10
6.584
 11
6.503
 20
-4.407
 21
-4.428
  0
LINE
  8
0
 10
6.503
 11
6.426
 20
-4.428
 21
-4.462
  0
LINE
  8
0
 10
6.426
 11
6.356
 20
-4.462
 21
-4.509
  0
LINE
  8
0
 10
6.356
 11
6.295
 20
-4.509
 21
-4.567
  0
LINE
  8
0
 10
6.295
 11
6.244
 20
-4.567
 21
-4.634
  0
LINE
  8
0
 10
6.244
 11
6.206
 20
-4.634
 21
-4.709
  0
LINE
  8
0
 10
6.206
 11
6.18
 20
-4.709
 21
-4.789
  0
LINE
  8
0
 10
6.18
 11
6.169
 20
-4.789
 21
-4.872
  0
LINE
  8
0
 10
6.169
 11
6.171
 20
-4.872
 21
-4.956
  0
LINE
  8
0
 10
6.171
 11
6.187
 20
-4.956
 21
-5.038
  0
LINE
  8
0
 10
6.187
 11
6.217
 20
-5.038
 21
-5.117
  0
LINE
  8
0
 10
6.217
 11
6.26
 20
-5.117
 21
-5.189
  0
LINE
  8
0
 10
6.26
 11
6.314
 20
-5.189
 21
-5.254
  0
LINE
  8
0
 10
6.314
 11
7.354
 20
-5.254
 21
-6.293
  0
LINE
  8
0
 10
7.354
 11
7.405
 20
-6.293
 21
-6.353
  0
LINE
  8
0
 10
7.405
 11
7.446
 20
-6.353
 21
-6.419
  0
LINE
  8
0
 10
7.446
 11
7.476
 20
-6.419
 21
-6.492
  0
LINE
  8
0
 10
7.476
 11
7.494
 20
-6.492
 21
-6.568
  0
LINE
  8
0
 10
7.494
 11
7.5
 20
-6.568
 21
-6.646
  0
LINE
  8
0
 10
7.5
 11
7.5
 20
-6.646
 21
-7.25
  0
LINE
  8
0
 10
7.5
 11
7.497
 20
-7.25
 21
-7.289
  0
LINE
  8
0
 10
7.497
 11
7.488
 20
-7.289
 21
-7.327
  0
LINE
  8
0
 10
7.488
 11
7.473
 20
-7.327
 21
-7.363
  0
LINE
  8
0
 10
7.473
 11
7.452
 20
-7.363
 21
-7.397
  0
LINE
  8
0
 10
7.452
 11
7.427
 20
-7.397
 21
-7.427
  0
LINE
  8
0
 10
7.427
 11
7.397
 20
-7.427
 21
-7.452
  0
LINE
  8
0
 10
7.397
 11
7.363
 20
-7.452
 21
-7.473
  0
LINE
  8
0
 10
7.363
 11
7.327
 20
-7.473
 21
-7.488
  0
LINE
  8
0
 10
7.327
 11
7.289
 20
-7.488
 21
-7.497
  0
LINE
  8
0
 10
7.289
 11
7.25
 20
-7.497
 21
-7.5
  0
LINE
  8
0
 10
7.25
 11
6.646
 20
-7.5
 21
-7.5
  0
LINE
  8
0
 10
6.646
 11
6.568
 20
-7.5
 21
-7.494
  0
LINE
  8
0
 10
6.568
 11
6.492
 20
-7.494
 21
-7.476
  0
LINE
  8
0
 10
6.492
 11
6.419
 20
-7.476
 21
-7.446
  0
LINE
  8
0
 10
6.419
 11
6.353
 20
-7.446
 21
-7.405
  0
LINE
  8
0
 10
6.353
 11
6.293
 20
-7.405
 21
-7.354
  0
LINE
  8
0
 10
6.293
 11
5.254
 20
-7.354
 21
-6.314
  0
LINE
  8
0
 10
5.254
 11
5.189
 20
-6.314
 21
-6.26
  0
LINE
  8
0
 10
5.189
 11
5.117
 20
-6.26
 21
-6.217
  0
LINE
  8
0
 10
5.117
 11
5.038
 20
-6.217
 21
-6.187
  0
LINE
  8
0
 10
5.038
 11
4.956
 20
-6.187
 21
-6.171
  0
LINE
  8
0
 10
4.956
 11
4.872
 20
-6.171
 21
-6.169
  0
LINE
  8
0
 10
4.872
 11
4.789
 20
-6.169
 21
-6.18
  0
LINE
  8
0
 10
4.789
 11
4.709
 20
-6.18
 21
-6.206
  0
LINE
  8
0
 10
4.709
 11
4.634
 20
-6.206
 21
-6.244
  0
LINE
  8
0
 10
4.634
 11
4.567
 20
-6.244
 21
-6.295
  0
LINE
  8
0
 10
4.567
 11
4.509
 20
-6.295
 21
-6.356
  0
LINE
  8
0
 10
4.509
 11
4.462
 20
-6.356
 21
-6.426
  0
LINE
  8
0
 10
4.462
 11
4.428
 20
-6.426
 21
-6.503
  0
LINE
  8
0
 10
4.428
 11
4.407
 20
-6.503
 21
-6.584
  0
LINE
  8
0
 10
4.407
 11
4.4
 20
-6.584
 21
-6.668
  0
LINE
  8
0
 10
4.4
 11
4.4
 20
-6.668
 21
-7
  0
LINE
  8
0
 10
4.4
 11
4.394
 20
-7
 21
-7.078
  0
LINE
  8
0
 10
4.394
 11
4.376
 20
-7.078
 21
-7.155
  0
LINE
  8
0
 10
4.376
 11
4.345
 20
-7.155
 21
-7.227
  0
LINE
  8
0
 10
4.345
 11
4.305
 20
-7.227
 21
-7.294
  0
LINE
  8
0
 10
4.305
 11
4.254
 20
-7.294
 21
-7.354
  0
LINE
  8
0
 10
4.254
 11
4.194
 20
-7.354
 21
-7.405
  0
LINE
  8
0
 10
4.194
 11
4.127
 20
-7.405
 21
-7.446
  0
LINE
  8
0
 10
4.127
 11
4.055
 20
-7.446
 21
-7.476
  0
LINE
  8
0
 10
4.055
 11
3.978
 20
-7.476
 21
-7.494
  0
LINE
  8
0
 10
3.978
 11
3.9
 20
-7.494
 21
-7.5
  0
LINE
  8
0
 10
3.9
 11
2.1
 20
-7.5
 21
-7.5
  0
LINE
  8
0
 10
2.1
 11
2.022
 20
-7.5
 21
-7.494
  0
LINE
  8
0
 10
2.022
 11
1.945
 20
-7.494
 21
-7.476
  0
LINE
  8
0
 10
1.945
 11
1.873
 20
-7.476
 21
-7.446
  0
LINE
  8
0
 10
1.873
 11
1.806
 20
-7.446
 21
-7.405
  0
LINE
  8
0
 10
1.806
 11
1.746
 20
-7.405
 21
-7.354
  0
LINE
  8
0
 10
1.746
 11
1.695
 20
-7.354
 21
-7.294
  0
LINE
  8
0
 10
1.695
 11
1.654
 20
-7.294
 21
-7.227
  0
LINE
  8
0
 10
1.654
 11
1.624
 20
-7.227
 21
-7.155
  0
LINE
  8
0
 10
1.624
 11
1.606
 20
-7.155
 21
-7.078
  0
LINE
  8
0
 10
1.606
 11
1.6
 20
-7.078
 21
-7
  0
LINE
  8
0
 10
1.6
 11
1.6
 20
-7
 21
-6.6
  0
LINE
  8
0
 10
1.6
 11
1.606
 20
-6.6
 21
-6.522
  0
LINE
  8
0
 10
1.606
 11
1.624
 20
-6.522
 21
-6.445
  0
LINE
  8
0
 10
1.624
 11
1.654
 20
-6.445
 21
-6.373
  0
LINE
  8
0
 10
1.654
 11
1.695
 20
-6.373
 21
-6.306
  0
LINE
  8
0
 10
1.695
 11
1.746
 20
-6.306
 21
-6.246
  0
LINE
  8
0
 10
1.746
 11
1.806
 20
-6.246
 21
-6.195
  0
LINE
  8
0
 10
1.806
 11
1.873
 20
-6.195
 21
-6.154
  0
LINE
  8
0
 10
1.873
 11
1.945
 20
-6.154
 21
-6.124
  0
LINE
  8
0
 10
1.945
 11
2.022
 20
-6.124
 21
-6.106
  0
LINE
  8
0
 10
2.022
 11
2.1
 20
-6.106
 21
-6.1
  0
LINE
  8
0
 10
2.1
 11
2.7
 20
-6.1
 21
-6.1
  0
LINE
  8
0
 10
2.7
 11
2.731
 20
-6.1
 21
-6.098
  0
LINE
  8
0
 10
2.731
 11
2.762
 20
-6.098
 21
-6.09
  0
LINE
  8
0
 10
2.762
 11
2.791
 20
-6.09
 21
-6.078
  0
LINE
  8
0
 10
2.791
 11
2.818
 20
-6.078
 21
-6.062
  0
LINE
  8
0
 10
2.818
 11
2.841
 20
-6.062
 21
-6.041
  0
LINE
  8
0
 10
2.841
 11
2.862
 20
-6.041
 21
-6.018
  0
LINE
  8
0
 10
2.862
 11
2.878
 20
-6.018
 21
-5.991
  0
LINE
  8
0
 10
2.878
 11
2.89
 20
-5.991
 21
-5.962
  0
LINE
  8
0
 10
2.89
 11
2.898
 20
-5.962
 21
-5.931
  0
LINE
  8
0
 10
2.898
 11
2.9
 20
-5.931
 21
-5.9
  0
LINE
  8
0
 10
2.9
 11
2.9
 20
-5.9
 21
-3.814
  0
LINE
  8
0
 10
2.9
 11
2.893
 20
-3.814
 21
-3.728
  0
LINE
  8
0
 10
2.893
 11
2.87
 20
-3.728
 21
-3.645
  0
LINE
  8
0
 10
2.87
 11
2.834
 20
-3.645
 21
-3.566
  0
LINE
  8
0
 10
2.834
 11
2.785
 20
-3.566
 21
-3.495
  0
LINE
  8
0
 10
2.785
 11
2.724
 20
-3.495
 21
-3.434
  0
LINE
  8
0
 10
2.724
 11
2.654
 20
-3.434
 21
-3.384
  0
LINE
  8
0
 10
2.654
 11
2.576
 20
-3.384
 21
-3.346
  0
LINE
  8
0
 10
2.576
 11
2.493
 20
-3.346
 21
-3.323
  0
LINE
  8
0
 10
2.493
 11
0.734
 20
-3.323
 21
-2.989
  0
LINE
  8
0
 10
0.734
 11
0.701
 20
-2.989
 21
-2.98
  0
LINE
  8
0
 10
0.701
 11
0.67
 20
-2.98
 21
-2.965
  0
LINE
  8
0
 10
0.67
 11
0.642
 20
-2.965
 21
-2.945
  0
LINE
  8
0
 10
0.642
 11
0.617
 20
-2.945
 21
-2.92
  0
LINE
  8
0
 10
0.617
 11
0.598
 20
-2.92
 21
-2.892
  0
LINE
  8
0
 10
0.598
 11
0.583
 20
-2.892
 21
-2.861
  0
LINE
  8
0
 10
0.583
 11
0.574
 20
-2.861
 21
-2.827
  0
LINE
  8
0
 10
0.574
 11
0.572
 20
-2.827
 21
-2.793
  0
LINE
  8
0
 10
0.572
 11
0.572
 20
-2.793
 21
-2.606
  0
LINE
  8
0
 10
0.572
 11
0.569
 20
-2.606
 21
-2.575
  0
LINE
  8
0
 10
0.569
 11
0.562
 20
-2.575
 21
-2.544
  0
LINE
  8
0
 10
0.562
 11
0.55
 20
-2.544
 21
-2.515
  0
LINE
  8
0
 10
0.55
 11
0.533
 20
-2.515
 21
-2.488
  0
LINE
  8
0
 10
0.533
 11
0.513
 20
-2.488
 21
-2.465
  0
LINE
  8
0
 10
0.513
 11
0.489
 20
-2.465
 21
-2.444
  0
LINE
  8
0
 10
0.489
 11
0.462
 20
-2.444
 21
-2.428
  0
LINE
  8
0
 10
0.462
 11
0.433
 20
-2.428
 21
-2.416
  0
LINE
  8
0
 10
0.433
 11
0.403
 20
-2.416
 21
-2.408
  0
LINE
  8
0
 10
0.403
 11
0.372
 20
-2.408
 21
-2.406
  0
LINE
  8
0
 10
0.372
 11
-0.372
 20
-2.406
 21
-2.406
  0
LINE
  8
0
 10
-0.372
 11
-0.403
 20
-2.406
 21
-2.408
  0
LINE
  8
0
 10
-0.403
 11
-0.433
 20
-2.408
 21
-2.416
  0
LINE
  8
0
 10
-0.433
 11
-0.462
 20
-2.416
 21
-2.428
  0
LINE
  8
0
 10
-0.462
 11
-0.489
 20
-2.428
 21
-2.444
  0
LINE
  8
0
 10
-0.489
 11
-0.513
 20
-2.444
 21
-2.465
  0
LINE
  8
0
 10
-0.513
 11
-0.533
 20
-2.465
 21
-2.488
  0
LINE
  8
0
 10
-0.533
 11
-0.55
 20
-2.488
 21
-2.515
  0
LINE
  8
0
 10
-0.55
 11
-0.562
 20
-2.515
 21
-2.544
  0
LINE
  8
0
 10
-0.562
 11
-0.569
 20
-2.544
 21
-2.575
  0
LINE
  8
0
 10
-0.569
 11
-0.572
 20
-2.575
 21
-2.606
  0
LINE
  8
0
 10
-0.572
 11
-0.572
 20
-2.606
 21
-2.793
  0
LINE
  8
0
 10
-0.572
 11
-0.574
 20
-2.793
 21
-2.827
  0
LINE
  8
0
 10
-0.574
 11
-0.583
 20
-2.827
 21
-2.861
  0
LINE
  8
0
 10
-0.583
 11
-0.598
 20
-2.861
 21
-2.892
  0
LINE
  8
0
 10
-0.598
 11
-0.617
 20
-2.892
 21
-2.92
  0
LINE
  8
0
 10
-0.617
 11
-0.642
 20
-2.92
 21
-2.945
  0
LINE
  8
0
 10
-0.642
 11
-0.67
 20
-2.945
 21
-2.965
  0
LINE
  8
0
 10
-0.67
 11
-0.701
 20
-2.965
 21
-2.98
  0
LINE
  8
0
 10
-0.701
 11
-0.734
 20
-2.98
 21
-2.989
  0
LINE
  8
0
 10
-0.734
 11
-2.493
 20
-2.989
 21
-3.323
  0
LINE
  8
0
 10
-2.493
 11
-2.576
 20
-3.323
 21
-3.346
  0
LINE
  8
0
 10
-2.576
 11
-2.654
 20
-3.346
 21
-3.384
  0
LINE
  8
0
 10
-2.654
 11
-2.724
 20
-3.384
 21
-3.434
  0
LINE
  8
0
 10
-2.724
 11
-2.785
 20
-3.434
 21
-3.495
  0
LINE
  8
0
 10
-2.785
 11
-2.834
 20
-3.495
 21
-3.566
  0
LINE
  8
0
 10
-2.834
 11
-2.87
 20
-3.566
 21
-3.645
  0
LINE
  8
0
 10
-2.87
 11
-2.893
 20
-3.645
 21
-3.728
  0
LINE
  8
0
 10
-2.893
 11
-2.9
 20
-3.728
 21
-3.814
  0
LINE
  8
0
 10
-2.9
 11
-2.9
 20
-3.814
 21
-5.9
  0
LINE
  8
0
 10
-2.9
 11
-2.898
 20
-5.9
 21
-5.931
  0
LINE
  8
0
 10
-2.898
 11
-2.89
 20
-5.931
 21
-5.962
  0
LINE
  8
0
 10
-2.89
 11
-2.878
 20
-5.962
 21
-5.991
  0
LINE
  8
0
 10
-2.878
 11
-2.862
 20
-5.991
 21
-6.018
  0
LINE
  8
0
 10
-2.862
 11
-2.841
 20
-6.018
 21
-6.041
  0
LINE
  8
0
 10
-2.841
 11
-2.818
 20
-6.041
 21
-6.062
  0
LINE
  8
0
 10
-2.818
 11
-2.791
 20
-6.062
 21
-6.078
  0
LINE
  8
0
 10
-2.791
 11
-2.762
 20
-6.078
 21
-6.09
  0
LINE
  8
0
 10
-2.762
 11
-2.731
 20
-6.09
 21
-6.098
  0
LINE
  8
0
 10
-2.731
 11
-2.7
 20
-6.098
 21
-6.1
  0
LINE
  8
0
 10
-2.7
 11
-2.1
 20
-6.1
 21
-6.1
  0
LINE
  8
0
 10
-2.1
 11
-2.022
 20
-6.1
 21
-6.106
  0
LINE
  8
0
 10
-2.022
 11
-1.945
 20
-6.106
 21
-6.124
  0
LINE
  8
0
 10
-1.945
 11
-1.873
 20
-6.124
 21
-6.154
  0
LINE
  8
0
 10
-1.873
 11
-1.806
 20
-6.154
 21
-6.195
  0
LINE
  8
0
 10
-1.806
 11
-1.746
 20
-6.195
 21
-6.246
  0
LINE
  8
0
 10
-1.746
 11
-1.695
 20
-6.246
 21
-6.306
  0
LINE
  8
0
 10
-1.695
 11
-1.654
 20
-6.306
 21
-6.373
  0
LINE
  8
0
 10
-1.654
 11
-1.624
 20
-6.373
 21
-6.445
  0
LINE
  8
0
 10
-1.624
 11
-1.606
 20
-6.445
 21
-6.522
  0
LINE
  8
0
 10
-1.606
 11
-1.6
 20
-6.522
 21
-6.6
  0
LINE
  8
0
 10
-1.6
 11
-1.6
 20
-6.6
 21
-7
  0
LINE
  8
0
 10
-1.6
 11
-1.606
 20
-7
 21
-7.078
  0
LINE
  8
0
 10
-1.606
 11
-1.624
 20
-7.078
 21
-7.155
  0
LINE
  8
0
 10
-1.624
 11
-1.654
 20
-7.155
 21
-7.227
  0
LINE
  8
0
 10
-1.654
 11
-1.695
 20
-7.227
 21
-7.294
  0
LINE
  8
0
 10
-1.695
 11
-1.746
 20
-7.294
 21
-7.354
  0
LINE
  8
0
 10
-1.746
 11
-1.806
 20
-7.354
 21
-7.405
  0
LINE
  8
0
 10
-1.806
 11
-1.873
 20
-7.405
 21
-7.446
  0
LINE
  8
0
 10
-1.873
 11
-1.945
 20
-7.446
 21
-7.476
  0
LINE
  8
0
 10
-1.945
 11
-2.022
 20
-7.476
 21
-7.494
  0
LINE
  8
0
 10
-2.022
 11
-2.1
 20
-7.494
 21
-7.5
  0
LINE
  8
0
 10
-2.1
 11
-3.9
 20
-7.5
 21
-7.5
  0
LINE
  8
0
 10
-3.9
 11
-3.978
 20
-7.5
 21
-7.494
  0
LINE
  8
0
 10
-3.978
 11
-4.055
 20
-7.494
 21
-7.476
  0
LINE
  8
0
 10
-4.055
 11
-4.127
 20
-7.476
 21
-7.446
  0
LINE
  8
0
 10
-4.127
 11
-4.194
 20
-7.446
 21
-7.405
  0
LINE
  8
0
 10
-4.194
 11
-4.254
 20
-7.405
 21
-7.354
  0
LINE
  8
0
 10
-4.254
 11
-4.305
 20
-7.354
 21
-7.294
  0
LINE
  8
0
 10
-4.305
 11
-4.345
 20
-7.294
 21
-7.227
  0
LINE
  8
0
 10
-4.345
 11
-4.376
 20
-7.227
 21
-7.155
  0
LINE
  8
0
 10
-4.376
 11
-4.394
 20
-7.155
 21
-7.078
  0
LINE
  8
0
 10
-4.394
 11
-4.4
 20
-7.078
 21
-7
  0
LINE
  8
0
 10
-4.4
 11
-4.4
 20
-7
 21
-6.668
  0
LINE
  8
0
 10
-4.4
 11
-4.407
 20
-6.668
 21
-6.584
  0
LINE
  8
0
 10
-4.407
 11
-4.428
 20
-6.584
 21
-6.503
  0
LINE
  8
0
 10
-4.428
 11
-4.462
 20
-6.503
 21
-6.426
  0
LINE
  8
0
 10
-4.462
 11
-4.509
 20
-6.426
 21
-6.356
  0
LINE
  8
0
 10
-4.509
 11
-4.567
 20
-6.356
 21
-6.295
  0
LINE
  8
0
 10
-4.567
 11
-4.634
 20
-6.295
 21
-6.244
  0
LINE
  8
0
 10
-4.634
 11
-4.709
 20
-6.244
 21
-6.206
  0
LINE
  8
0
 10
-4.709
 11
-4.789
 20
-6.206
 21
-6.18
  0
LINE
  8
0
 10
-4.789
 11
-4.872
 20
-6.18
 21
-6.169
  0
LINE
  8
0
 10
-4.872
 11
-4.956
 20
-6.169
 21
-6.171
  0
LINE
  8
0
 10
-4.956
 11
-5.038
 20
-6.171
 21
-6.187
  0
LINE
  8
0
 10
-5.038
 11
-5.117
 20
-6.187
 21
-6.217
  0
LINE
  8
0
 10
-5.117
 11
-5.189
 20
-6.217
 21
-6.26
  0
LINE
  8
0
 10
-5.189
 11
-5.254
 20
-6.26
 21
-6.314
  0
LINE
  8
0
 10
-5.254
 11
-6.293
 20
-6.314
 21
-7.354
  0
LINE
  8
0
 10
-6.293
 11
-6.353
 20
-7.354
 21
-7.405
  0
LINE
  8
0
 10
-6.353
 11
-6.419
 20
-7.405
 21
-7.446
  0
LINE
  8
0
 10
-6.419
 11
-6.492
 20
-7.446
 21
-7.476
  0
LINE
  8
0
 10
-6.492
 11
-6.568
 20
-7.476
 21
-7.494
  0
LINE
  8
0
 10
-6.568
 11
-6.646
 20
-7.494
 21
-7.5
  0
LINE
  8
0
 10
-6.646
 11
-7.25
 20
-7.5
 21
-7.5
  0
LINE
  8
0
 10
-7.25
 11
-7.289
 20
-7.5
 21
-7.497
  0
LINE
  8
0
 10
-7.289
 11
-7.327
 20
-7.497
 21
-7.488
  0
LINE
  8
0
 10
-7.327
 11
-7.363
 20
-7.488
 21
-7.473
  0
LINE
  8
0
 10
-7.363
 11
-7.397
 20
-7.473
 21
-7.452
  0
LINE
  8
0
 10
-7.397
 11
-7.427
 20
-7.452
 21
-7.427
  0
LINE
  8
0
 10
-7.427
 11
-7.452
 20
-7.427
 21
-7.397
  0
LINE
  8
0
 10
-7.452
 11
-7.473
 20
-7.397
 21
-7.363
  0
LINE
  8
0
 10
-7.473
 11
-7.488
 20
-7.363
 21
-7.327
  0
LINE
  8
0
 10
-7.488
 11
-7.497
 20
-7.327
 21
-7.289
  0
LINE
  8
0
 10
-7.497
 11
-7.5
 20
-7.289
 21
-7.25
  0
LINE
  8
0
 10
-1.35
 11
-1.341
 20
0.005
 21
0.11
  0
LINE
  8
0
 10
-1.341
 11
-1.328
 20
0.11
 21
0.239
  0
LINE
  8
0
 10
-1.328
 11
-1.294
 20
0.239
 21
0.365
  0
LINE
  8
0
 10
-1.294
 11
-1.268
 20
0.365
 21
0.463
  0
LINE
  8
0
 10
-1.268
 11
-1.208
 20
0.463
 21
0.592
  0
LINE
  8
0
 10
-1.208
 11
-1.169
 20
0.592
 21
0.675
  0
LINE
  8
0
 10
-1.169
 11
-1.101
 20
0.675
 21
0.772
  0
LINE
  8
0
 10
-1.101
 11
-1.032
 20
0.772
 21
0.869
  0
LINE
  8
0
 10
-1.032
 11
-0.951
 20
0.869
 21
0.951
  0
LINE
  8
0
 10
-0.951
 11
-0.869
 20
0.951
 21
1.032
  0
LINE
  8
0
 10
-0.869
 11
-0.772
 20
1.032
 21
1.101
  0
LINE
  8
0
 10
-0.772
 11
-0.675
 20
1.101
 21
1.169
  0
LINE
  8
0
 10
-0.675
 11
-0.592
 20
1.169
 21
1.208
  0
LINE
  8
0
 10
-0.592
 11
-0.463
 20
1.208
 21
1.268
  0
LINE
  8
0
 10
-0.463
 11
-0.365
 20
1.268
 21
1.294
  0
LINE
  8
0
 10
-0.365
 11
-0.239
 20
1.294
 21
1.328
  0
LINE
  8
0
 10
-0.239
 11
-0.11
 20
1.328
 21
1.341
  0
LINE
  8
0
 10
-0.11
 11
-0.005
 20
1.341
 21
1.35
  0
LINE
  8
0
 10
-0.005
 11
0.19
 20
1.35
 21
1.334
  0
LINE
  8
0
 10
0.19
 11
0.224
 20
1.334
 21
1.331
  0
LINE
  8
0
 10
0.224
 11
0.351
 20
1.331
 21
1.298
  0
LINE
  8
0
 10
0.351
 11
0.457
 20
1.298
 21
1.27
  0
LINE
  8
0
 10
0.457
 11
0.541
 20
1.27
 21
1.232
  0
LINE
  8
0
 10
0.541
 11
0.667
 20
1.232
 21
1.173
  0
LINE
  8
0
 10
0.667
 11
0.755
 20
1.173
 21
1.113
  0
LINE
  8
0
 10
0.755
 11
0.861
 20
1.113
 21
1.039
  0
LINE
  8
0
 10
0.861
 11
0.91
 20
1.039
 21
0.992
  0
LINE
  8
0
 10
0.91
 11
1.03
 20
0.992
 21
0.872
  0
LINE
  8
0
 10
1.03
 11
1.166
 20
0.872
 21
0.681
  0
LINE
  8
0
 10
1.166
 11
1.266
 20
0.681
 21
0.469
  0
LINE
  8
0
 10
1.266
 11
1.328
 20
0.469
 21
0.243
  0
LINE
  8
0
 10
1.328
 11
1.35
 20
0.243
 21
0.01
  0
LINE
  8
0
 10
1.35
 11
1.331
 20
0.01
 21
-0.223
  0
LINE
  8
0
 10
1.331
 11
1.273
 20
-0.223
 21
-0.45
  0
LINE
  8
0
 10
1.273
 11
1.176
 20
-0.45
 21
-0.663
  0
LINE
  8
0
 10
1.176
 11
1.044
 20
-0.663
 21
-0.856
  0
LINE
  8
0
 10
1.044
 11
0.951
 20
-0.856
 21
-0.951
  0
LINE
  8
0
 10
0.951
 11
0.856
 20
-0.951
 21
-1.044
  0
LINE
  8
0
 10
0.856
 11
0.663
 20
-1.044
 21
-1.176
  0
LINE
  8
0
 10
0.663
 11
0.45
 20
-1.176
 21
-1.273
  0
LINE
  8
0
 10
0.45
 11
0.223
 20
-1.273
 21
-1.331
  0
LINE
  8
0
 10
0.223
 11
-0.01
 20
-1.331
 21
-1.35
  0
LINE
  8
0
 10
-0.01
 11
-0.243
 20
-1.35
 21
-1.328
  0
LINE
  8
0
 10
-0.243
 11
-0.469
 20
-1.328
 21
-1.266
  0
LINE
  8
0
 10
-0.469
 11
-0.681
 20
-1.266
 21
-1.166
  0
LINE
  8
0
 10
-0.681
 11
-0.872
 20
-1.166
 21
-1.03
  0
LINE
  8
0
 10
-0.872
 11
-0.992
 20
-1.03
 21
-0.91
  0
LINE
  8
0
 10
-0.992
 11
-1.039
 20
-0.91
 21
-0.861
  0
LINE
  8
0
 10
-1.039
 11
-1.113
 20
-0.861
 21
-0.755
  0
LINE
  8
0
 10
-1.113
 11
-1.173
 20
-0.755
 21
-0.667
  0
LINE
  8
0
 10
-1.173
 11
-1.232
 20
-0.667
 21
-0.541
  0
LINE
  8
0
 10
-1.232
 11
-1.27
 20
-0.541
 21
-0.457
  0
LINE
  8
0
 10
-1.27
 11
-1.298
 20
-0.457
 21
-0.351
  0
LINE
  8
0
 10
-1.298
 11
-1.331
 20
-0.351
 21
-0.224
  0
LINE
  8
0
 10
-1.331
 11
-1.334
 20
-0.224
 21
-0.19
  0
LINE
  8
0
 10
-1.334
 11
-1.35
 20
-0.19
 21
0.005
  0
ENDSEC
  0
SECTION
  2
OBJECTS
  0
DICTIONARY
  0
ENDSEC
  0
EOF
